<?xml version="1.0" encoding="UTF-8"?>
<svg width="20px" height="15px" viewBox="0 0 20 15" version="1.1" xmlns="http://www.w3.org/2000/svg" xmlns:xlink="http://www.w3.org/1999/xlink">
    <!-- Generator: Sketch 55.2 (78181) - https://sketchapp.com -->
    <title>01-toolbar-undo</title>
    <desc>Created with Sketch.</desc>
    <g id="Page-1" stroke="none" stroke-width="1" fill="none" fill-rule="evenodd">
        <g id="editor-icons-broken" transform="translate(-26.000000, -27.000000)" fill="#434343" fill-rule="nonzero">
            <g id="01-toolbar-undo" transform="translate(26.000000, 27.000000)">
                <path d="M1.75426387,6 L12,6 C15.5898509,6 18.5,8.91014913 18.5,12.5 L18.5,14.5 C18.5,14.7761424 18.7238576,15 19,15 C19.2761424,15 19.5,14.7761424 19.5,14.5 L19.5,12.5 C19.5,8.35786438 16.1421356,5 12,5 L1.75426387,5 C1.4781215,5 1.25426387,5.22385763 1.25426387,5.5 C1.25426387,5.77614237 1.4781215,6 1.75426387,6 Z" id="Shape"></path>
                <path d="M2.13051057,5.5 L6.27695718,1.35355339 C6.47221932,1.15829124 6.47221932,0.841708755 6.27695718,0.646446609 C6.08169503,0.451184464 5.76511254,0.451184464 5.5698504,0.646446609 L1.0698504,5.14644661 C0.874588252,5.34170876 0.874588252,5.65829124 1.0698504,5.85355339 L5.5698504,10.3535534 C5.76511254,10.5488155 6.08169503,10.5488155 6.27695718,10.3535534 C6.47221932,10.1582912 6.47221932,9.84170876 6.27695718,9.64644661 L2.13051057,5.5 Z" id="Path-13"></path>
            </g>
        </g>
    </g>
</svg>