<?xml version="1.0" encoding="UTF-8"?>
<svg width="22px" height="21px" viewBox="0 0 22 21" version="1.1" xmlns="http://www.w3.org/2000/svg" xmlns:xlink="http://www.w3.org/1999/xlink">
    <!-- Generator: Sketch 55.2 (78181) - https://sketchapp.com -->
    <title>016-toolbar-arrow</title>
    <desc>Created with Sketch.</desc>
    <g id="Page-1" stroke="none" stroke-width="1" fill="none" fill-rule="evenodd">
        <g id="editor-icons-broken" transform="translate(-454.000000, -25.000000)" fill="#434343">
            <g id="016-toolbar-arrow" transform="translate(455.000000, 26.000000)">
                <g id="Group-17" transform="translate(4.000000, 4.000000)">
                    <rect id="Rectangle" x="0" y="0" width="12" height="1" rx="0.5"></rect>
                    <rect id="Rectangle-Copy-3" x="0" y="3" width="10" height="1" rx="0.5"></rect>
                    <rect id="Rectangle-Copy-9" x="0" y="6" width="6" height="1" rx="0.5"></rect>
                    <rect id="Rectangle-Copy-10" x="7" y="6" width="2" height="1" rx="0.5"></rect>
                </g>
                <path d="M9.99164324,18.2827638 L6.83116909,15.1068274 C6.73733173,15.012531 6.6097851,14.959517 6.47675401,14.959517 L2,14.959517 C1.16893448,14.959517 0.5,14.3063757 0.5,13.5067359 L0.5,1.95278109 C0.5,1.1531413 1.16893448,0.5 2,0.5 L18,0.5 C18.8310655,0.5 19.5,1.1531413 19.5,1.95278109 L19.5,9.32658496 C19.5,9.60272734 19.7238576,9.82658496 20,9.82658496 C20.2761424,9.82658496 20.5,9.60272734 20.5,9.32658496 L20.5,1.95278109 C20.5,0.59543845 19.3780735,-0.5 18,-0.5 L2,-0.5 C0.621926521,-0.5 -0.5,0.59543845 -0.5,1.95278109 L-0.5,13.5067359 C-0.5,14.8640785 0.621926521,15.959517 2,15.959517 L6.26893215,15.959517 L9.64558492,19.3526896 C9.84426305,19.5523397 10.1685639,19.5485612 10.3625364,19.3443362 L13.5774294,15.959517 L18,15.959517 C19.3780735,15.959517 20.5,14.8640785 20.5,13.5067359 L20.5,11.3950556 C20.5,11.1189132 20.2761424,10.8950556 20,10.8950556 C19.7238576,10.8950556 19.5,11.1189132 19.5,11.3950556 L19.5,13.5067359 C19.5,14.3063757 18.8310655,14.959517 18,14.959517 L13.3627422,14.959517 C13.2256681,14.959517 13.094605,15.0157922 13.0002059,15.1151808 L9.99164324,18.2827638 Z" id="Path" fill-rule="nonzero"></path>
            </g>
        </g>
    </g>
</svg>