<?xml version="1.0" encoding="UTF-8"?>
<svg width="21px" height="20px" viewBox="0 0 21 20" version="1.1" xmlns="http://www.w3.org/2000/svg" xmlns:xlink="http://www.w3.org/1999/xlink">
    <!-- Generator: Sketch 55.2 (78181) - https://sketchapp.com -->
    <title>08-toolbar-arrow</title>
    <desc>Created with Sketch.</desc>
    <g id="Page-1" stroke="none" stroke-width="1" fill="none" fill-rule="evenodd">
        <g id="editor-icons-broken" transform="translate(-370.000000, -26.000000)" fill="#434343" fill-rule="nonzero">
            <g id="08-toolbar-arrow" transform="translate(370.361191, 26.000000)">
                <path d="M14.6765329,4.96460676 L12.3496698,2.62004334 L20.3496698,0 L17.6890102,8 L15.3809604,5.67439282 L3.59187893,17.4634742 C3.39661679,17.6587364 3.0800343,17.6587364 2.88477215,17.4634742 C2.68951001,17.2682121 2.68951001,16.9516296 2.88477215,16.7563675 L14.6765329,4.96460676 Z M1.40315564,19.6521975 C1.20789349,19.8474597 0.891311,19.8474597 0.696048854,19.6521975 C0.500786708,19.4569354 0.500786708,19.1403529 0.696048854,18.9450908 L1.59684436,18.0442952 C1.79210651,17.8490331 2.108689,17.8490331 2.30395115,18.0442952 C2.49921329,18.2395574 2.49921329,18.5561399 2.30395115,18.751402 L1.40315564,19.6521975 Z" id="Combined-Shape"></path>
            </g>
        </g>
    </g>
</svg>