<?xml version="1.0" encoding="UTF-8"?>
<svg width="22px" height="20px" viewBox="0 0 22 20" version="1.1" xmlns="http://www.w3.org/2000/svg" xmlns:xlink="http://www.w3.org/1999/xlink">
    <!-- Generator: Sketch 55.2 (78181) - https://sketchapp.com -->
    <title>018-toolbar-text</title>
    <desc>Created with Sketch.</desc>
    <g id="Page-1" stroke="none" stroke-width="1" fill="none" fill-rule="evenodd">
        <g id="editor-icons-broken" transform="translate(-664.000000, -26.000000)" fill="#434343" fill-rule="nonzero">
            <g id="018-toolbar-text" transform="translate(664.000000, 26.000000)">
                <path d="M2.18882175,7.69467787 L4.74773414,7.69467787 L3.48942598,3.96358543 L3.46827795,3.96358543 L2.18882175,7.69467787 Z M2.93957704,3 L4.04984894,3 L7,11 L5.8897281,11 L5.06495468,8.59103641 L1.87160121,8.59103641 L1.02567976,11 L0,11 L2.93957704,3 Z" id="A"></path>
                <path d="M14.7916667,13.4534968 L7.5,13.4534968 L6.22222222,16.5392934 C5.90740583,17.2987301 5.75,17.8658957 5.75,18.2408075 C5.75,18.5388143 5.88657271,18.8007679 6.15972222,19.0266763 C6.43287174,19.2525846 7.02314361,19.3991826 7.93055556,19.4664744 L7.93055556,20 L2,20 L2,19.4664744 C2.78704097,19.3222776 3.29629514,19.1348245 3.52777778,18.9041096 C4,18.4426797 4.52314528,17.5054144 5.09722222,16.0922855 L11.7222222,0 L12.2083333,0 L18.7638889,16.2653208 C19.2916693,17.5727054 19.7708312,18.4210507 20.2013889,18.8103821 C20.6319466,19.1997136 21.2314776,19.4184088 22,19.4664744 L22,20 L14.5694444,20 L14.5694444,19.4664744 C15.3194482,19.4280219 15.8263876,19.2982467 16.0902778,19.0771449 C16.354168,18.8560431 16.4861111,18.5868797 16.4861111,18.2696467 C16.4861111,17.8466694 16.3009278,17.1785674 15.9305556,16.2653208 L14.7916667,13.4534968 Z M14.4027778,12.3864456 L11.2083333,4.48449892 L7.93055556,12.3864456 L14.4027778,12.3864456 Z" id="A"></path>
            </g>
        </g>
    </g>
</svg>