<?xml version="1.0" encoding="UTF-8"?>
<svg width="21px" height="20px" viewBox="0 0 21 20" version="1.1" xmlns="http://www.w3.org/2000/svg" xmlns:xlink="http://www.w3.org/1999/xlink">
    <!-- Generator: Sketch 55.2 (78181) - https://sketchapp.com -->
    <title>02-toolbar-refresh</title>
    <desc>Created with Sketch.</desc>
    <g id="Page-1" stroke="none" stroke-width="1" fill="none" fill-rule="evenodd">
        <g id="editor-icons-broken" transform="translate(-67.000000, -26.000000)" fill="#434343" fill-rule="nonzero">
            <g id="02-toolbar-refresh" transform="translate(66.000000, 27.000000)">
                <g id="Group-20" transform="translate(1.900000, 0.000000)">
                    <path d="M18.1643629,5.18869515 C16.6231195,1.75998265 13.142696,-0.5 9.24,-0.5 C3.86364861,-0.5 -0.5,3.75030708 -0.5,9 C-0.5,9.27614237 -0.276142375,9.5 0,9.5 C0.276142375,9.5 0.5,9.27614237 0.5,9 C0.5,4.30856742 4.41012922,0.5 9.24,0.5 C12.7483561,0.5 15.8721503,2.52840854 17.2522745,5.59868875 C17.3654911,5.85055501 17.6614492,5.96295276 17.9133155,5.84973615 C18.1651818,5.73651954 18.2775795,5.4405614 18.1643629,5.18869515 Z" id="Path"></path>
                    <path d="M13.2996842,4.41197917 C13.0296926,4.354021 12.7638368,4.52590806 12.7058786,4.79589965 C12.6479205,5.06589125 12.8198075,5.33174706 13.0897991,5.38970523 L17.6033762,6.35861929 C17.8491152,6.41137125 18.0958213,6.2735039 18.1796725,6.03655957 L19.7131234,1.70350586 C19.8052501,1.44318434 19.6689012,1.15746866 19.4085797,1.06534202 C19.1482581,0.973215385 18.8625425,1.10956428 18.7704158,1.3698858 L17.3835807,5.28865518 L13.2996842,4.41197917 Z" id="Path-11"></path>
                </g>
                <g id="Group-20-Copy" transform="translate(11.300000, 13.500000) scale(-1, -1) translate(-11.300000, -13.500000) translate(0.800000, 8.000000)">
                    <path d="M19.1643629,6.18869515 C17.6231195,2.75998265 14.142696,0.5 10.24,0.5 C4.86364861,0.5 0.5,4.75030708 0.5,10 C0.5,10.2761424 0.723857625,10.5 1,10.5 C1.27614237,10.5 1.5,10.2761424 1.5,10 C1.5,5.30856742 5.41012922,1.5 10.24,1.5 C13.7483561,1.5 16.8721503,3.52840854 18.2522745,6.59868875 C18.3654911,6.85055501 18.6614492,6.96295276 18.9133155,6.84973615 C19.1651818,6.73651954 19.2775795,6.4405614 19.1643629,6.18869515 Z" id="Path"></path>
                    <path d="M18.4416733,6.32547056 L14.3619815,5.4129004 C14.0924987,5.35262085 13.8251735,5.52221361 13.764894,5.79169642 C13.7046144,6.06117924 13.8742072,6.32850445 14.14369,6.388784 L18.657267,7.39840823 C18.9046884,7.45375294 19.1543696,7.31515141 19.2382534,7.0758945 L20.7717043,2.7021239 C20.8630677,2.44153353 20.7258822,2.15621863 20.4652918,2.06485523 C20.2047014,1.97349183 19.9193865,2.11067739 19.8280231,2.37126776 L18.4416733,6.32547056 Z" id="Path-11"></path>
                </g>
            </g>
        </g>
    </g>
</svg>