<?xml version="1.0" encoding="UTF-8"?>
<svg width="20px" height="20px" viewBox="0 0 20 20" version="1.1" xmlns="http://www.w3.org/2000/svg" xmlns:xlink="http://www.w3.org/1999/xlink">
    <g id="Page-1" stroke="none" stroke-width="1" fill="none" fill-rule="evenodd">
        <g id="editor-icons-broken" transform="translate(-244.000000, -26.000000)" fill="#434343" fill-rule="nonzero">
            <g id="05-toolbar-pencil" transform="translate(241.000000, 25.000000)">
                <g id="Group" transform="translate(12.055244, 12.216259) rotate(45.000000) translate(-12.055244, -12.216259) translate(8.055244, -0.783741)">
                    <g id="Group-10" transform="translate(0.462222, 0.022798)">
                        <path fill="#f78600" d="M3.328,-0.5 C5.44214602,-0.5 7.156,1.21385398 7.156,3.328 L7.156,20.8 C7.156,21.0761424 6.93214237,21.3 6.656,21.3 L2.27373675e-13,21.3 C-0.276142375,21.3 -0.5,21.0761424 -0.5,20.8 L-0.5,3.328 C-0.5,1.21385398 1.21385398,-0.5 3.328,-0.5 Z M6.156,20.3 L6.156,3.328 C6.156,1.76613873 4.88986127,0.5 3.328,0.5 C1.76613873,0.5 0.5,1.76613873 0.5,3.328 L0.5,20.3 L6.156,20.3 Z" id="Rectangle"></path>
                        <polygon fill="#f78600" id="Path-5" points="2.27373675e-13 3.80748175 6.656 3.80748175 6.656 2.80748175 2.27373675e-13 2.80748175"></polygon>
                        <path fill="#f78600" d="M3.22159663,23.5206752 L0.36562549,20.4589458 C0.177266429,20.2570164 -0.139124867,20.2460154 -0.34105425,20.4343745 C-0.542983632,20.6227336 -0.553984551,20.9391249 -0.36562549,21.1410542 L2.84295864,24.5808007 C3.03577151,24.7875048 3.36146533,24.7933986 3.56163066,24.593806 L5.34376123,22.8167742 C5.5393029,22.621792 5.53975644,22.3052098 5.34477422,22.1096682 C5.14979201,21.9141265 4.83320984,21.913673 4.63766817,22.1086552 L3.22159663,23.5206752 Z" id="Path-6"></path>
                        <polygon fill="#f78600" id="Path-7" points="2.828 3.30748175 2.828 20.8 3.828 20.8 3.828 3.30748175"></polygon>
                    </g>
                </g>
            </g>
        </g>
    </g>
</svg>