<?xml version="1.0" encoding="UTF-8"?>
<svg width="20px" height="20px" viewBox="0 0 20 20" version="1.1" xmlns="http://www.w3.org/2000/svg" xmlns:xlink="http://www.w3.org/1999/xlink">
    <g id="Page-1" stroke="none" stroke-width="1" fill="none" fill-rule="evenodd">
        <g id="editor-icons-broken" transform="translate(-330.000000, -26.000000)" fill="#434343" fill-rule="nonzero">
            <g id="07-toolbar-text" transform="translate(331.000000, 27.000000)">
                <path fill="#0066ff" d="M17.5,15.1245305 L17.5,16.2 C17.5,16.9179702 16.9179702,17.5 16.2,17.5 L1.8,17.5 C1.08202983,17.5 0.5,16.9179702 0.5,16.2 L0.5,1.8 C0.5,1.08202983 1.08202983,0.5 1.8,0.5 L16.2,0.5 C16.9179702,0.5 17.5,1.08202983 17.5,1.8 L17.5,12.5327545 C17.5,12.8088969 17.7238576,13.0327545 18,13.0327545 C18.2761424,13.0327545 18.5,12.8088969 18.5,12.5327545 L18.5,1.8 C18.5,0.529745075 17.4702549,-0.5 16.2,-0.5 L1.8,-0.5 C0.529745075,-0.5 -0.5,0.529745075 -0.5,1.8 L-0.5,16.2 C-0.5,17.4702549 0.529745075,18.5 1.8,18.5 L16.2,18.5 C17.4702549,18.5 18.5,17.4702549 18.5,16.2 L18.5,15.1245305 C18.5,14.8483881 18.2761424,14.6245305 18,14.6245305 C17.7238576,14.6245305 17.5,14.8483881 17.5,15.1245305 Z" id="Path"></path>
                <polygon fill="#0066ff" id="T" points="7.92649573 5.8487395 5 5.8487395 5 4 13 4 13 5.8487395 10.0735043 5.8487395 10.0735043 14 7.92649573 14"></polygon>
            </g>
        </g>
    </g>
</svg>