<svg version="1.1" xmlns="http://www.w3.org/2000/svg" xmlns:xlink="http://www.w3.org/1999/xlink" x="0px" y="0px"
	 viewBox="0 0 27 27" style="enable-background:new 0 0 27 27;" xml:space="preserve">

<title>download-entire-page</title>
<desc>Created with Sketch.</desc>
<g id="Page-1">
	<g id="scrnli-popup-UI" transform="translate(-65.000000, -324.000000)">
		<g id="download-entire-page" transform="translate(66.000000, 325.000000)">
			<path id="Path" style="fill-rule:evenodd;clip-rule:evenodd;fill:#FFFFFF;stroke:#0096FE;stroke-linecap:round;stroke-linejoin:round;" d="M15.8,25H2.6c-0.9,0-1.3-0.1-1.6-0.3c-0.3-0.2-0.6-0.4-0.7-0.7S0,23.3,0,22.4V2.5
				C0,1.6,0.1,1.3,0.3,1s0.4-0.6,0.8-0.8C1.3,0.1,1.7,0,2.6,0h19.8c0.9,0,1.2,0.1,1.5,0.3c0.3,0.2,0.6,0.4,0.8,0.8
				C25,1.4,25,1.7,25,2.6v19.8c0,0.9-0.1,1.2-0.3,1.5c-0.2,0.3-0.4,0.6-0.8,0.8c-0.2,0.2-0.6,0.3-1.5,0.3h-3.1"/>
			<path id="Rectangle-Copy-10" style="fill-rule:evenodd;clip-rule:evenodd;fill:#0096FE;fill-opacity:0.3;" d="M3,21.7v-4.3C3,17.1,3.1,17,3.3,17h4.3C7.9,17,8,17.1,8,17.3v4.4
				C8,21.9,7.9,22,7.7,22H3.3C3.1,22,3,21.9,3,21.7z"/>
			<path id="Rectangle-Copy-10_1_" style="fill-rule:evenodd;clip-rule:evenodd;fill:#0096FE;fill-opacity:0.3;" d="M3,7.7V3.4C3,3.1,3.1,3,3.3,3h4.3C7.9,3,8,3.1,8,3.3v4.3C8,7.9,7.9,8,7.7,8H3.3
				C3.1,8,3,7.9,3,7.7z"/>
			<path id="Rectangle-Copy-10_3_" style="fill-rule:evenodd;clip-rule:evenodd;fill:#0096FE;fill-opacity:0.3;" d="M3,14.7v-4.3C3,10.1,3.1,10,3.3,10h4.3C7.9,10,8,10.1,8,10.3v4.3
				C8,14.9,7.9,15,7.7,15H3.3C3.1,15,3,14.9,3,14.7z"/>
			<path id="Rectangle-Copy-10_10_" style="fill-rule:evenodd;clip-rule:evenodd;fill:#0096FE;fill-opacity:0.3;" d="M10,21.7v-4.3c0-0.3,0.1-0.4,0.3-0.4h4.3c0.3,0,0.4,0.1,0.4,0.3v4.4
				c0,0.2-0.1,0.3-0.3,0.3h-4.3C10.1,22,10,21.9,10,21.7z"/>
			<path id="Rectangle-Copy-10_8_" style="fill-rule:evenodd;clip-rule:evenodd;fill:#0096FE;fill-opacity:0.3;" d="M10,7.7V3.4c0-0.2,0.1-0.3,0.3-0.3h4.3c0.2,0,0.3,0.1,0.3,0.3v4.3
				c0,0.2-0.1,0.3-0.3,0.3h-4.3C10.1,8,10,7.9,10,7.7z"/>
			<path id="Rectangle-Copy-10_2_" style="fill-rule:evenodd;clip-rule:evenodd;fill:#0096FE;fill-opacity:0.3;" d="M10,14.7v-4.3c0-0.2,0.1-0.3,0.3-0.3h4.3c0.2,0,0.3,0.1,0.3,0.3v4.3
				c0,0.2-0.1,0.3-0.3,0.3h-4.3C10.1,15,10,14.9,10,14.7z"/>
			<path id="Rectangle-Copy-10_16_" style="fill-rule:evenodd;clip-rule:evenodd;fill:#0096FE;fill-opacity:0.3;" d="M17,21.7v-4.3c0-0.3,0.1-0.4,0.3-0.4h4.3c0.3,0,0.4,0.1,0.4,0.3v4.4
				c0,0.2-0.1,0.3-0.3,0.3h-4.3C17.1,22,17,21.9,17,21.7z"/>
			<path id="Rectangle-Copy-10_14_" style="fill-rule:evenodd;clip-rule:evenodd;fill:#0096FE;fill-opacity:0.3;" d="M17,7.7V3.4c0-0.2,0.1-0.3,0.3-0.3h4.3c0.2,0,0.3,0.1,0.3,0.3v4.3
				c0,0.2-0.1,0.3-0.3,0.3h-4.3C17.1,8,17,7.9,17,7.7z"/>
			<path id="Rectangle-Copy-10_7_" style="fill-rule:evenodd;clip-rule:evenodd;fill:#0096FE;fill-opacity:0.3;" d="M17,14.7v-4.3c0-0.2,0.1-0.3,0.3-0.3h4.3c0.2,0,0.3,0.1,0.3,0.3v4.3
				c0,0.2-0.1,0.3-0.3,0.3h-4.3C17.1,15,17,14.9,17,14.7z"/>
		</g>
	</g>
</g>
</svg>
