<svg version="1.1" xmlns="http://www.w3.org/2000/svg" xmlns:xlink="http://www.w3.org/1999/xlink" x="0px" y="0px"
	 viewBox="0 0 27 27" style="enable-background:new 0 0 27 27;" xml:space="preserve">
<title>download-entire-page</title>
<desc>Created with Sketch.</desc>
<g id="Page-1">
	<g id="scrnli-popup-UI" transform="translate(-65.000000, -324.000000)">
		<g id="download-entire-page" transform="translate(66.000000, 325.000000)">
			<path id="Path" style="fill-rule:evenodd;clip-rule:evenodd;fill:#FFFFFF;stroke:#0096FE;stroke-linecap:round;stroke-linejoin:round;" d="M25,9.3v13.2c0,0.9-0.1,1.3-0.3,1.6c-0.2,0.3-0.4,0.6-0.7,0.7c-0.3,0.1-0.7,0.3-1.6,0.3H2.5
				c-0.9,0-1.2-0.1-1.5-0.3c-0.3-0.2-0.6-0.4-0.8-0.8C0.1,23.8,0,23.4,0,22.5V2.6c0-0.9,0.1-1.2,0.3-1.5c0.2-0.3,0.4-0.6,0.8-0.8
				C1.4,0.1,1.7,0,2.6,0h19.8c0.9,0,1.2,0.1,1.5,0.3c0.3,0.2,0.6,0.4,0.8,0.8C24.9,1.4,25,1.8,25,2.7v3.1"/>
			<path id="Rectangle-Copy-10" style="fill-rule:evenodd;clip-rule:evenodd;fill:#0096FE;fill-opacity:0.3;" d="M3.4,2h18.2C22.4,2,23,2.6,23,3.4v18.2c0,0.8-0.6,1.4-1.4,1.4H3.4
				C2.6,23,2,22.4,2,21.6V3.4C2,2.6,2.6,2,3.4,2z"/>
		</g>
	</g>
</g>
</svg>
