<?xml version="1.0" encoding="UTF-8"?>
<svg width="27px" height="27px" viewBox="0 0 27 27" version="1.1" xmlns="http://www.w3.org/2000/svg" xmlns:xlink="http://www.w3.org/1999/xlink">
    <!-- Generator: Sketch 55.1 (78136) - https://sketchapp.com -->
    <title>download-entire-page</title>
    <desc>Created with Sketch.</desc>
    <g id="Page-1" stroke="none" stroke-width="1" fill="none" fill-rule="evenodd">
        <g id="scrnli-popup-UI" transform="translate(-65.000000, -324.000000)">
            <g id="download-entire-page" transform="translate(66.000000, 325.000000)">
                <path d="M-1.77635684e-15,15.7867016 L-1.77635684e-15,2.5638852 C-1.77635684e-15,1.67236646 0.0928256111,1.34908022 0.267132704,1.0231543 C0.441439796,0.697228371 0.697228371,0.441439796 1.0231543,0.267132704 C1.34908022,0.0928256111 1.67236646,0 2.5638852,0 L22.4361148,0 C23.3276335,0 23.6509198,0.0928256111 23.9768457,0.267132704 C24.3027716,0.441439796 24.5585602,0.697228371 24.7328673,1.0231543 C24.9071744,1.34908022 25,1.67236646 25,2.5638852 L25,22.4361148 C25,23.3276335 24.9071744,23.6509198 24.7328673,23.9768457 C24.5585602,24.3027716 24.3027716,24.5585602 23.9768457,24.7328673 C23.6509198,24.9071744 23.3276335,25 22.4361148,25 L2.5638852,25 C1.67236646,25 1.34908022,24.9071744 1.0231543,24.7328673 C0.697228371,24.5585602 0.441439796,24.3027716 0.267132704,23.9768457 C0.0928256111,23.6509198 -1.77635684e-15,23.3276335 -1.77635684e-15,22.4361148 L-1.77635684e-15,19.3104567" id="Path" stroke="#0096FE" fill="#FFFFFF" stroke-linecap="round" stroke-linejoin="round"></path>
                <rect id="Rectangle-Copy-10" fill-opacity="0.3" fill="#0096FE" x="5" y="5" width="15" height="15" rx="1"></rect>
                <path d="M12.5,8 L12.5,15" id="Path-3-Copy" stroke="#0096FE" stroke-linecap="round"></path>
                <polygon id="Path-4-Copy" stroke="#0096FE" fill="#0096FE" stroke-linecap="round" stroke-linejoin="round" points="10 14 12.5 17 15 14"></polygon>
            </g>
        </g>
    </g>
</svg>