<?xml version="1.0" encoding="utf-8"?>
<!-- Generator: Adobe Illustrator 23.0.1, SVG Export Plug-In . SVG Version: 6.00 Build 0)  -->
<svg version="1.1" id="Layer_1" xmlns="http://www.w3.org/2000/svg" xmlns:xlink="http://www.w3.org/1999/xlink" x="0px" y="0px"
	 viewBox="0 0 27 27" style="enable-background:new 0 0 27 27;" xml:space="preserve">
<style type="text/css">
	.st0{fill-rule:evenodd;clip-rule:evenodd;fill:#FFFFFF;stroke:#0096FE;stroke-linecap:round;stroke-linejoin:round;}
	.st1{fill-rule:evenodd;clip-rule:evenodd;fill:#0096FE;fill-opacity:0.3;}
	.st2{fill:#0097FF;}
</style>
<title>download-entire-page</title>
<desc>Created with Sketch.</desc>
<g id="Page-1">
	<g id="scrnli-popup-UI" transform="translate(-65.000000, -324.000000)">
		<g id="download-entire-page" transform="translate(66.000000, 325.000000)">
			<path id="Path" class="st0" d="M9.2,0.1h13.2c0.9,0,1.3,0.1,1.6,0.3c0.3,0.2,0.6,0.4,0.7,0.7C24.9,1.3,25,1.8,25,2.7v19.9
				c0,0.9-0.1,1.2-0.3,1.5c-0.2,0.3-0.4,0.6-0.8,0.8C23.8,25,23.3,25,22.5,25H2.5C1.6,25,1.3,25,1,24.8S0.4,24.4,0.2,24
				c-0.2-0.3-0.3-0.6-0.3-1.5V2.7c0-0.9,0.1-1.2,0.3-1.5S0.6,0.6,1,0.4c0.3-0.2,0.7-0.3,1.6-0.3h3.1"/>
			<path id="Rectangle-Copy-10" class="st1" d="M3.9,19.9V5.2c0-0.6,0.5-1.1,1.1-1.1h14.7c0.6,0,1.1,0.5,1.1,1.1v14.7
				c0,0.6-0.5,1.1-1.1,1.1H5.1C4.4,21,3.9,20.6,3.9,19.9z"/>
		</g>
	</g>
</g>
<g>
	<path class="st2" d="M12.1,10.2c-0.6-0.4-1.1-0.1-1.1,0.7v5.4c0,0.7,0.5,1,1.1,0.7l4.5-2.7c0.6-0.4,0.6-0.9,0-1.3L12.1,10.2z"/>
</g>
</svg>
