<?xml version="1.0" encoding="UTF-8"?>
<svg width="26px" height="26px" viewBox="0 0 26 26" version="1.1" xmlns="http://www.w3.org/2000/svg" xmlns:xlink="http://www.w3.org/1999/xlink">
    <!-- Generator: Sketch 55.1 (78136) - https://sketchapp.com -->
    <title>selected-area</title>
    <desc>Created with Sketch.</desc>
    <g id="Page-1" stroke="none" stroke-width="1" fill="none" fill-rule="evenodd">
        <g id="scrnli-popup-UI" transform="translate(-65.000000, -168.000000)">
            <g id="selected-area" transform="translate(66.000000, 169.000000)">
                <g id="Group-11" stroke-linecap="round" stroke-linejoin="round">
                    <path d="M24,20.115857 L24,21.4361148 C24,22.3276335 23.9071744,22.6509198 23.7328673,22.9768457 C23.5585602,23.3027716 23.3027716,23.5585602 22.9768457,23.7328673 C22.6509198,23.9071744 22.3276335,24 21.4361148,24 L2.5638852,24 C1.67236646,24 1.34908022,23.9071744 1.0231543,23.7328673 C0.697228371,23.5585602 0.441439796,23.3027716 0.267132704,22.9768457 C0.0928256111,22.6509198 0,22.3276335 0,21.4361148 L0,2.5638852 C0,1.67236646 0.0928256111,1.34908022 0.267132704,1.0231543 C0.441439796,0.697228371 0.697228371,0.441439796 1.0231543,0.267132704 C1.34908022,0.0928256111 1.67236646,0 2.5638852,0 L21.4361148,0 C22.3276335,0 22.6509198,0.0928256111 22.9768457,0.267132704 C23.3027716,0.441439796 23.5585602,0.697228371 23.7328673,1.0231543 C23.9071744,1.34908022 24,1.67236646 24,2.5638852 L24,16 L24,20.115857 Z" id="Path" stroke="#D5D5D5" fill="#FFFFFF"></path>
                    <path d="M19,17.7610296 L19,19.1111111 C19,19.6020309 18.5522847,20 18,20 L6,20 C5.44771525,20 5,19.6020309 5,19.1111111 L5,4.88888889 C5,4.39796911 5.44771525,4 6,4 L18,4 C18.5522847,4 19,4.39796911 19,4.88888889 L19,13.7777778 L19,14.8263755" id="Path" stroke="#B2DFFE"></path>
                </g>
                <path d="M2,0 L12,0 C13.1045695,-2.02906125e-16 14,0.8954305 14,2 L14,12 C14,13.1045695 13.1045695,14 12,14 L7.63235997,14 L3.53793845,14 L2,14 C0.8954305,14 -8.67738547e-17,13.1045695 0,12 L0,2 C-1.3527075e-16,0.8954305 0.8954305,2.02906125e-16 2,0 Z" id="Rectangle-Copy-14" stroke="#0096FE" fill-opacity="0.3" fill="#0096FE"></path>
            </g>
        </g>
    </g>
</svg>